HIERARCHY
ROOT Hips
{
	OFFSET	0.00	0.00	0.00
	CHANNELS 6 Xposition Yposition Zposition Zrotation Xrotation Yrotation
	JOINT Spine
	{
		OFFSET	 0.00	0.01	 0.00
		CHANNELS 3 Zrotation Xrotation Yrotation
		JOINT Spine1
		{
			OFFSET	 0.00	 2.45913012437421	 0.00
			CHANNELS 3 Zrotation Xrotation Yrotation
            JOINT Neck
            {
                OFFSET	 0.00	 2.48462964506057	 0.00
                CHANNELS 3 Zrotation Xrotation Yrotation
                JOINT Head
                {
                    OFFSET	 0.00	 0.927524780924562	 0.00
                    CHANNELS 3 Zrotation Xrotation Yrotation
                    End Site 
                    {
                        OFFSET	 0.00	 1.14999962169752	 0.00
                    }
                }
            }
			JOINT LeftShoulder
			{
				OFFSET	 0.00	 2.48462964506057	 0.00
				CHANNELS 3 Zrotation Xrotation Yrotation
				JOINT LeftUpArm
				{
					OFFSET	 0.00	 1.24881979654096	 0.00
					CHANNELS 3 Zrotation Xrotation Yrotation
					JOINT LeftForeArm
					{
						OFFSET	 0.00	2.59758046908119	 0.00
						CHANNELS 3 Zrotation Xrotation Yrotation
						JOINT LeftHand
						{
							OFFSET	 0.00	2.45542024364365	 0.00
							CHANNELS 3 Zrotation Xrotation Yrotation
							JOINT LeftHandThumb 
							{
								OFFSET	 0.00	0.00	 0.00
								CHANNELS 3 Zrotation Xrotation Yrotation
								End Site
								{
									OFFSET	 0.00	0.00	1.00000003353624
								}
							}
							JOINT L_Wrist_End 
							{
								OFFSET	 0.00	0.99999967115358	 0.00
								CHANNELS 3 Zrotation Xrotation Yrotation
								End Site 
								{
									OFFSET	 0.00	 0.00	 0.00
								}
							}
						}
					}
				}
			}
			JOINT RightShoulder
			{
				OFFSET	 0.00	 2.48462964506057	 0.00
				CHANNELS 3 Zrotation Xrotation Yrotation
				JOINT RightUpArm
				{
					OFFSET	 0.00	 1.24881979654096	 0.00
					CHANNELS 3 Zrotation Xrotation Yrotation
					JOINT RightForeArm
					{
						OFFSET	 0.00	2.59758046908119	 0.00
						CHANNELS 3 Zrotation Xrotation Yrotation
						JOINT RightHand
						{
							OFFSET	 0.00	2.45542024364365	 0.00
							CHANNELS 3 Zrotation Xrotation Yrotation
							JOINT RightHandThumb 
							{
								OFFSET	 0.00	0.00	 0.00
								CHANNELS 3 Zrotation Xrotation Yrotation
								End Site
								{
									OFFSET	 0.00	0.00	1.00000003353624
								}
							}
							JOINT R_Wrist_End 
							{
								OFFSET	 0.00	0.99999967115358	 0.00
								CHANNELS 3 Zrotation Xrotation Yrotation
								End Site 
								{
									OFFSET	 0.00	 0.00	 0.00
								}
							}
						}
					}
				}
			}
		}
	}
	JOINT LeftUpLeg
	{
		OFFSET	 1.2719394002717	 0.00	 0.00
		CHANNELS 3 Zrotation Xrotation Yrotation
		JOINT LeftLowLeg
		{
			OFFSET	 0.00	-4.3429100912261	 0.00
			CHANNELS 3 Zrotation Xrotation Yrotation
			JOINT LeftFoot
			{
				OFFSET	 0.00	-4.48767017425826	 0.00
				CHANNELS 3 Zrotation Xrotation Yrotation
				JOINT LeftToeBase
                {
                    OFFSET	 0.00	0.00	 1.51507020887566
                    CHANNELS 3 Zrotation Xrotation Yrotation
                    End Site 
                    {
                        OFFSET	 0.00	0.00	 0.75000010571191
                    }
                }
			}
		}
	}
	JOINT RightUpLeg
	{
		OFFSET	 -1.2719393604653	 0.00	 0.00
		CHANNELS 3 Zrotation Xrotation Yrotation
		JOINT RightLowLeg
		{
			OFFSET	 0.00	-4.3429100912261	 0.00
			CHANNELS 3 Zrotation Xrotation Yrotation
			JOINT RightFoot
			{
				OFFSET	 0.00	-4.48767017425826	 0.00
				CHANNELS 3 Zrotation Xrotation Yrotation
				JOINT RightToeBase
                {
                    OFFSET	 0.00	0.00	 1.51507020887566
                    CHANNELS 3 Zrotation Xrotation Yrotation
                    End Site 
                    {
                        OFFSET	 0.00	0.00	 0.749999965609858
                    }
                }   
			}
		}
	}
}
MOTION 
Frames:	15 
Frame Time: 0.02 
 0.7002149963378906 5.780050048828125 9.355579833984375 -161.275 78.6934 518.894 2.63619 -11.1243 -0.945563 4.52937 -9.06711 -0.634954 -11.2413 65.3599 2.78133 80.9744 -80.8117 426.802 -112.8576 -8.99174 -13.7753 13.0817 14.4551 -22.7047 0.0 5.20117 0.0 20.8694 -16.3583 36.196 0.0 0.0 0.0 0.0 0.0 0.0 108.4362 -2.92815 7.45001 -7.82678 3.59005 46.4324 0.0 15.817 0.0 -20.3826 -16.7419 -53.9382 0.0 0.0 0.0 0.0 0.0 0.0 2.05863 -6.97362 -4.73027 0.0 4.05288 0.0 -9.50335 2.8453999 16.0701 0.0 -37.5045 0.0 8.78816 -6.79076 3.10319 0.0 6.91815 0.0 12.7573 4.9507 -17.4818 0.0 -33.6945 0.0 
  0.7009649658203125 5.778729858398438 9.355679931640625 -161.249 78.7019 518.924 2.64204 -11.1719 -0.954798 4.51963 -9.02153 -0.648414 -11.3037 65.4054 2.85419 81.1295 -80.8097 426.962 -112.8745 -9.01192 -13.7985 13.0846 14.4844 -22.7563 0.0 5.20301 0.0 20.9135 -16.295 36.3264 0.0 0.0 0.0 0.0 0.0 0.0 108.4392 -2.94463 7.4918 -7.90095 3.53762 46.4086 0.0 15.7884 0.0 -20.4783 -16.7438 -54.0059 0.0 0.0 0.0 0.0 0.0 0.0 2.05208 -6.94835 -4.71275 0.0 4.01767 0.0 -9.50595 2.8818998 16.0034 0.0 -37.5378 0.0 8.77476 -6.78319 2.96866 0.0 6.93355 0.0 12.7352 4.9558 -17.4127 0.0 -33.701 0.0 
  0.7012419891357422 5.779359741210937 9.355579833984375 -161.165 78.7024 518.945 2.64808 -11.1786 -0.98885 4.49298 -9.02104 -0.685148 -11.2913 65.4217 2.85318 81.1129 -80.7899 426.953 -112.8897 -9.01878 -13.7944 13.1267 14.4944 -22.7325 0.0 5.20805 0.0 20.8982 -16.2806 36.2632 0.0 0.0 0.0 0.0 0.0 0.0 108.459 -2.92882 7.48642 -7.98084 3.43212 46.4644 0.0 15.8051 0.0 -20.5237 -16.8349 -54.0311 0.0 0.0 0.0 0.0 0.0 0.0 2.05047 -6.97109 -4.85775 0.0 4.03224 0.0 -9.491 2.8816996 16.0508 0.0 -37.527397 0.0 8.77755 -6.76751 2.95323 0.0 6.90579 0.0 12.7589 4.9402 -17.4799 0.0 -33.736702 0.0 
  0.7018080139160157 5.779439697265625 9.355609741210937 -161.09 78.7237 518.934 2.65537 -11.1776 -1.00489 4.47724 -9.01336 -0.704099 -11.279 65.4417 2.83484 81.0091 -80.7853 426.881 -112.8957 -9.03225 -13.81 13.1342 14.5102 -22.7444 0.0 5.20965 0.0 20.9113 -16.2574 36.1921 0.0 0.0 0.0 0.0 0.0 0.0 108.4546 -2.94483 7.52353 -8.01499 3.40092 46.5118 0.0 15.8398 0.0 -20.6474 -16.9524 -54.0354 0.0 0.0 0.0 0.0 0.0 0.0 2.04541 -6.95555 -4.91409 0.0 4.02873 0.0 -9.49405 2.8884 16.047 0.0 -37.513397 0.0 8.77293 -6.74999 2.91409 0.0 6.91758 0.0 12.7841 4.9216995 -17.4931 0.0 -33.7343 0.0 
  0.7023570251464843 5.779819946289063 9.355579833984375 -160.98 78.7465 518.91 2.6675 -11.1671 -1.02535 4.44256 -9.00395 -0.72878 -11.2442 65.4415 2.80466 80.9683 -80.7689 426.857 -112.899 -9.03627 -13.7968 13.1589 14.5241 -22.6969 0.0 5.21845 0.0 20.899 -16.2977 36.08 0.0 0.0 0.0 0.0 0.0 0.0 108.4629 -2.99028 7.59657 -8.07314 3.35978 46.3848 0.0 15.8318 0.0 -20.5089 -16.9389 -53.7846 0.0 0.0 0.0 0.0 0.0 0.0 2.04384 -6.95161 -4.98388 0.0 4.04377 0.0 -9.49317 2.8957005 16.0289 0.0 -37.5219 0.0 8.77152 -6.7335 2.82994 0.0 6.93239 0.0 12.7776 4.9084997 -17.4958 0.0 -33.7052 0.0 
  0.7029380035400391 5.780419921875 9.355549926757812 -160.925 78.7703 518.921 2.67189 -11.1496 -1.03913 4.42125 -9.00954 -0.743719 -11.1952 65.4532 2.73978 80.9399 -80.7662 426.867 -112.8823 -9.02537 -13.8048 13.1423 14.507 -22.638 0.0 5.24306 0.0 20.8497 -16.3115 36.0991 0.0 0.0 0.0 0.0 0.0 0.0 108.4572 -3.03068 7.58621 -8.11587 3.37944 46.4806 0.0 15.7917 0.0 -20.6628 -16.9195 -53.9158 0.0 0.0 0.0 0.0 0.0 0.0 2.03379 -6.9424 -5.04425 0.0 4.04672 0.0 -9.49137 2.9092999 16.0273 0.0 -37.5303 0.0 8.76988 -6.69748 2.9812 0.0 6.91003 0.0 12.837 4.8514996 -17.6694 0.0 -33.6959 0.0 
  0.7036009979248047 5.780419921875 9.355969848632812 -160.962 78.7958 519.002 2.64632 -11.1629 -1.04241 4.435 -8.97295 -0.741671 -11.0885 65.48 2.58557 81.1625 -80.7763 427.176 -112.9088 -9.02318 -13.7993 13.1444 14.5271 -22.618 0.0 5.23694 0.0 20.8677 -16.2455 36.1202 0.0 0.0 0.0 0.0 0.0 0.0 108.4597 -3.07522 7.64842 -8.18341 3.3792 46.4751 0.0 15.8203 0.0 -20.702 -16.9512 -53.9567 0.0 0.0 0.0 0.0 0.0 0.0 2.0034 -6.85755 -5.51421 0.0 3.91574 0.0 -9.51836 2.9246998 16.4319 0.0 -37.474197 0.0 8.74582 -6.67803 2.97378 0.0 6.91053 0.0 12.8636 4.8341 -17.6986 0.0 -33.695 0.0 
  0.7040920257568359 5.780670166015625 9.356019897460937 -160.902 78.8192 518.985 2.64211 -11.1733 -1.05526 4.42817 -8.9261 -0.756008 -11.0452 65.4484 2.53492 81.034 -80.7731 427.102 -112.9299 -9.04869 -13.8062 13.1653 14.5613 -22.6948 0.0 5.22475 0.0 20.8857 -16.1794 36.1027 0.0 0.0 0.0 0.0 0.0 0.0 108.4604 -3.08819 7.70803 -8.21882 3.35954 46.5303 0.0 15.8725 0.0 -20.6611 -16.8895 -54.2511 0.0 0.0 0.0 0.0 0.0 0.0 1.99819 -6.84372 -5.50557 0.0 3.92009 0.0 -9.52499 2.9392004 16.3847 0.0 -37.4945 0.0 8.7428 -6.65425 2.96267 0.0 6.91127 0.0 12.8642 4.8219004 -17.7315 0.0 -33.6875 0.0 
  0.7048590087890625 5.781619873046875 9.355570068359375 -160.834 78.8377 518.985 2.65904 -11.1772 -1.07816 4.36853 -8.8842 -0.78573 -10.967 65.4001 2.474 80.8236 -80.736 426.949 -112.9265 -9.07048 -13.7946 13.2012 14.5892 -22.7743 0.0 5.22643 0.0 20.886 -16.2217 36.0325 0.0 0.0 0.0 0.0 0.0 0.0 108.470505 -3.09241 7.69722 -8.2478 3.3461 46.7039 0.0 15.885 0.0 -20.5847 -16.9221 -54.1431 0.0 0.0 0.0 0.0 0.0 0.0 1.9954 -6.89828 -5.20228 0.0 4.02704 0.0 -9.48637 2.9569998 16.0391 0.0 -37.5261 0.0 8.72262 -6.69885 2.55351 0.0 7.01899 0.0 12.8014 4.8402004 -17.4313 0.0 -33.7053 0.0 
  0.7052700042724609 5.782639770507813 9.355609741210937 -160.76 78.861 518.959 2.67968 -11.1671 -1.08168 4.30927 -8.87691 -0.794655 -10.9152 65.4288 2.42565 80.8634 -80.7108 427.007 -112.9141 -9.0444 -13.7765 13.2269 14.572 -22.7446 0.0 5.23666 0.0 20.8771 -16.2284 36.0768 0.0 0.0 0.0 0.0 0.0 0.0 108.4867 -3.1008 7.71248 -8.30463 3.31861 46.5342 0.0 15.8405 0.0 -20.5897 -16.9211 -53.8956 0.0 0.0 0.0 0.0 0.0 0.0 1.99254 -6.89024 -5.23652 0.0 4.03474 0.0 -9.47537 2.9686003 16.0308 0.0 -37.528 0.0 8.72077 -6.68059 2.53643 0.0 7.02263 0.0 12.8009 4.8314 -17.4625 0.0 -33.7017 0.0 
  0.7056289672851562 5.78364990234375 9.355599975585937 -160.7 78.8702 518.94 2.68345 -11.1619 -1.09528 4.29604 -8.88426 -0.809309 -10.9608 65.45 2.47501 80.8019 -80.7137 426.961 -112.9353 -9.04824 -13.6979 13.2828 14.5605 -22.8088 0.0 5.2323 0.0 20.8571 -16.2386 36.1394 0.0 0.0 0.0 0.0 0.0 0.0 108.4755 -3.11592 7.74497 -8.33602 3.36128 46.4683 0.0 15.8005 0.0 -20.6986 -16.9041 -53.7178 0.0 0.0 0.0 0.0 0.0 0.0 1.99361 -6.89144 -5.26317 0.0 4.03433 0.0 -9.47511 2.9771996 16.0201 0.0 -37.5424 0.0 8.72375 -6.67768 2.5279 0.0 7.0272 0.0 12.7991 4.8279 -17.496 0.0 -33.6871 0.0 
  0.7062270355224609 5.784929809570312 9.355689697265625 -160.645 78.8791 518.923 2.69076 -11.1573 -1.10863 4.27244 -8.88412 -0.824893 -11.02 65.4494 2.54925 80.555 -80.7112 426.727 -112.949 -9.072 -13.6794 13.311 14.5899 -22.8326 0.0 5.22112 0.0 20.8825 -16.2222 36.1269 0.0 0.0 0.0 0.0 0.0 0.0 108.4756 -3.12444 7.73363 -8.37582 3.33719 46.3385 0.0 15.8429 0.0 -20.6175 -16.9562 -53.5244 0.0 0.0 0.0 0.0 0.0 0.0 1.99226 -6.89571 -5.28653 0.0 4.03637 0.0 -9.48236 2.9894 16.0045 0.0 -37.561897 0.0 8.72103 -6.67982 2.45427 0.0 7.03637 0.0 12.8069 4.8323 -17.4626 0.0 -33.700897 0.0 
  0.7066699981689453 5.7860498046875 9.355900268554688 -160.579 78.88 518.884 2.70312 -11.1663 -1.11452 4.24358 -8.87126 -0.83471 -11.0006 65.4698 2.5335 80.4464 -80.6933 426.661 -112.9581 -9.11657 -13.6856 13.3309 14.6501 -22.8597 0.0 5.22217 0.0 20.8853 -16.179 36.1499 0.0 0.0 0.0 0.0 0.0 0.0 108.4892 -3.12536 7.70551 -8.40668 3.32836 46.4044 0.0 15.8835 0.0 -20.5927 -16.9514 -53.5202 0.0 0.0 0.0 0.0 0.0 0.0 1.99974 -6.90024 -5.29513 0.0 4.03071 0.0 -9.47489 3.0056 15.9902 0.0 -37.544502 0.0 8.72122 -6.70149 2.28381 0.0 7.07022 0.0 12.7633 4.8676004 -17.345 0.0 -33.7011 0.0 
  0.7071099853515626 5.788209838867187 9.355700073242188 -160.55 78.8958 518.899 2.70827 -11.1417 -1.12095 4.19976 -8.88687 -0.841279 -10.8723 65.5156 2.3799 80.4497 -80.6698 426.727 -112.9391 -9.11519 -13.7204 13.3145 14.6685 -22.8955 0.0 5.27512 0.0 20.8755 -16.1625 36.1711 0.0 0.0 0.0 0.0 0.0 0.0 108.4989 -3.13695 7.68551 -8.46024 3.33075 46.3085 0.0 15.8781 0.0 -20.5352 -17.0066 -53.2855 0.0 0.0 0.0 0.0 0.0 0.0 1.9915 -6.91486 -5.3239 0.0 4.04984 0.0 -9.47874 3.0143003 15.9703 0.0 -37.5617 0.0 8.72195 -6.66231 2.50029 0.0 7.00758 0.0 12.8451 4.8097 -17.5501 0.0 -33.6491 0.0 
  0.707645034790039 5.789819946289063 9.35552001953125 -160.513 78.9061 518.878 2.71257 -11.1534 -1.11809 4.17992 -8.86602 -0.840141 -10.8601 65.5655 2.35664 80.3718 -80.6669 426.652 -112.9387 -9.09704 -13.7205 13.3147 14.6532 -22.9448 0.0 5.34483 0.0 20.9063 -16.0971 36.2991 0.0 0.0 0.0 0.0 0.0 0.0 108.4936 -3.10575 7.67193 -8.49965 3.30582 46.2985 0.0 15.8671 0.0 -20.4828 -16.9595 -53.1906 0.0 0.0 0.0 0.0 0.0 0.0 1.98992 -6.91489 -5.3293 0.0 4.04807 0.0 -9.45906 3.0150003 15.966 0.0 -37.567802 0.0 8.72005 -6.65986 2.49416 0.0 7.00508 0.0 12.8524 4.8093004 -17.5553 0.0 -33.6837 0.0 
